# xmcd
#
# Track frame offsets: 
#        150
#        14021
#        24905
#        40040
#        49741
#        65193
#        76855
#        87902
#        99417
#        110079
#        122991
#        136183
#        148738
#        159088
#        170893
#        184905
#        194433
#        206401
#        219695
#        235157
#
# Disc length: 3297 seconds
#
# Revision: 1
# Processed by: cddbd v1.5.2PL0 Copyright (c) Steve Scherf et al.
# Submitted via: ExactAudioCopy v0.99pb5
#
DISCID=1f0cdf14
DTITLE=Henri Crolla - Le long des rues [CD1)
DYEAR=2009
DGENRE=Jazz
TTITLE0=A Paris dans chaque faubourg
TTITLE1=Sous les ponts de Paris
TTITLE2=Sur les quais du vieux Paris
TTITLE3=J'ai deux amours
TTITLE4=Sous les toits de Paris
TTITLE5=Paris, je t'aime d'amour
TTITLE6=En avril a Paris
TTITLE7=Revoir Paris
TTITLE8=Tout est permis quand on s'aime
TTITLE9=Le chaland qui passe
TTITLE10=Si jolie
TTITLE11=Ramona
TTITLE12=My melancholy baby
TTITLE13=Little white lies
TTITLE14=Vous qui passez sans me voir
TTITLE15=Premier rendez-vous
TTITLE16=Amour, mon cher amour
TTITLE17=Rose-Marie
TTITLE18=Poinciana
TTITLE19=Bonsoir cherie
EXTD=YEAR: 2009
EXTT0=
EXTT1=
EXTT2=
EXTT3=
EXTT4=
EXTT5=
EXTT6=
EXTT7=
EXTT8=
EXTT9=
EXTT10=
EXTT11=
EXTT12=
EXTT13=
EXTT14=
EXTT15=
EXTT16=
EXTT17=
EXTT18=
EXTT19=
PLAYORDER=
